<svg viewBox="0 0 1200 800" xmlns="http://www.w3.org/2000/svg">
  <!-- Title -->
  <text x="600" y="30" font-family="Arial" font-size="24" font-weight="bold" text-anchor="middle">Social Drinking Platform Database Schema</text>
  
  <!-- First Row -->
  <!-- Users Table -->
  <rect x="50" y="70" width="220" height="340" fill="#e6f2ff" stroke="#0066cc" stroke-width="2" rx="5" />
  <text x="160" y="95" font-family="Arial" font-size="16" font-weight="bold" text-anchor="middle">Users</text>
  <line x1="50" y1="105" x2="270" y2="105" stroke="#0066cc" stroke-width="1" />
  <text x="60" y="125" font-family="Arial" font-size="14" font-weight="bold">PK</text>
  <text x="90" y="125" font-family="Arial" font-size="14" font-weight="bold">UserID</text>
  <line x1="50" y1="135" x2="270" y2="135" stroke="#cccccc" stroke-width="1" />
  <text x="90" y="155" font-family="Arial" font-size="14">Username (unique)</text>
  <line x1="50" y1="165" x2="270" y2="165" stroke="#cccccc" stroke-width="1" />
  <text x="90" y="185" font-family="Arial" font-size="14">FirstName</text>
  <line x1="50" y1="195" x2="270" y2="195" stroke="#cccccc" stroke-width="1" />
  <text x="90" y="215" font-family="Arial" font-size="14">LastName</text>
  <line x1="50" y1="225" x2="270" y2="225" stroke="#cccccc" stroke-width="1" />
  <text x="90" y="245" font-family="Arial" font-size="14">DateOfBirth</text>
  <line x1="50" y1="255" x2="270" y2="255" stroke="#cccccc" stroke-width="1" />
  <text x="90" y="275" font-family="Arial" font-size="14">Weight</text>
  <line x1="50" y1="285" x2="270" y2="285" stroke="#cccccc" stroke-width="1" />
  <text x="90" y="305" font-family="Arial" font-size="14">Height</text>
  <line x1="50" y1="315" x2="270" y2="315" stroke="#cccccc" stroke-width="1" />
  <text x="90" y="335" font-family="Arial" font-size="14">Gender</text>
  <line x1="50" y1="345" x2="270" y2="345" stroke="#cccccc" stroke-width="1" />
  <text x="90" y="365" font-family="Arial" font-size="14">ProfilePicture</text>
  <line x1="50" y1="375" x2="270" y2="375" stroke="#cccccc" stroke-width="1" />
  <text x="90" y="395" font-family="Arial" font-size="14">Password</text>

  <!-- FriendRequest Table -->
  <rect x="490" y="70" width="220" height="180" fill="#fff0e6" stroke="#ff6600" stroke-width="2" rx="5" />
  <text x="600" y="95" font-family="Arial" font-size="16" font-weight="bold" text-anchor="middle">FriendRequest</text>
  <line x1="490" y1="105" x2="710" y2="105" stroke="#ff6600" stroke-width="1" />
  <text x="500" y="125" font-family="Arial" font-size="14" font-weight="bold">PK</text>
  <text x="530" y="125" font-family="Arial" font-size="14" font-weight="bold">RequestID</text>
  <line x1="490" y1="135" x2="710" y2="135" stroke="#cccccc" stroke-width="1" />
  <text x="500" y="155" font-family="Arial" font-size="14" font-weight="bold">FK</text>
  <text x="530" y="155" font-family="Arial" font-size="14">SenderID → Users</text>
  <line x1="490" y1="165" x2="710" y2="165" stroke="#cccccc" stroke-width="1" />
  <text x="500" y="185" font-family="Arial" font-size="14" font-weight="bold">FK</text>
  <text x="530" y="185" font-family="Arial" font-size="14">ReceiverID → Users</text>
  <line x1="490" y1="195" x2="710" y2="195" stroke="#cccccc" stroke-width="1" />
  <text x="530" y="215" font-family="Arial" font-size="14">Status</text>
  <line x1="490" y1="225" x2="710" y2="225" stroke="#cccccc" stroke-width="1" />
  <text x="530" y="245" font-family="Arial" font-size="14">RequestDate</text>

  <!-- Friends Table -->
  <rect x="930" y="70" width="220" height="150" fill="#e6ffe6" stroke="#009900" stroke-width="2" rx="5" />
  <text x="1040" y="95" font-family="Arial" font-size="16" font-weight="bold" text-anchor="middle">Friends</text>
  <line x1="930" y1="105" x2="1150" y2="105" stroke="#009900" stroke-width="1" />
  <text x="940" y="125" font-family="Arial" font-size="14" font-weight="bold">PK</text>
  <text x="970" y="125" font-family="Arial" font-size="14" font-weight="bold">FriendshipID</text>
  <line x1="930" y1="135" x2="1150" y2="135" stroke="#cccccc" stroke-width="1" />
  <text x="940" y="155" font-family="Arial" font-size="14" font-weight="bold">FK</text>
  <text x="970" y="155" font-family="Arial" font-size="14">UserID → Users</text>
  <line x1="930" y1="165" x2="1150" y2="165" stroke="#cccccc" stroke-width="1" />
  <text x="940" y="185" font-family="Arial" font-size="14" font-weight="bold">FK</text>
  <text x="970" y="185" font-family="Arial" font-size="14">FriendID → Users</text>
  <line x1="930" y1="195" x2="1150" y2="195" stroke="#cccccc" stroke-width="1" />
  <text x="970" y="215" font-family="Arial" font-size="14">FriendsSince</text>

  <!-- Second Row -->
  <!-- DrinkCategories Table -->
  <rect x="50" y="440" width="220" height="120" fill="#ffe6cc" stroke="#ff9900" stroke-width="2" rx="5" />
  <text x="160" y="465" font-family="Arial" font-size="16" font-weight="bold" text-anchor="middle">DrinkCategories</text>
  <line x1="50" y1="475" x2="270" y2="475" stroke="#ff9900" stroke-width="1" />
  <text x="60" y="495" font-family="Arial" font-size="14" font-weight="bold">PK</text>
  <text x="90" y="495" font-family="Arial" font-size="14" font-weight="bold">CategoryID</text>
  <line x1="50" y1="505" x2="270" y2="505" stroke="#cccccc" stroke-width="1" />
  <text x="90" y="525" font-family="Arial" font-size="14">Name (unique)</text>
  <line x1="50" y1="535" x2="270" y2="535" stroke="#cccccc" stroke-width="1" />
  <text x="90" y="555" font-family="Arial" font-size="14">Description</text>

  <!-- Occasion Table -->
  <rect x="490" y="280" width="220" height="230" fill="#f2e6ff" stroke="#6600cc" stroke-width="2" rx="5" />
  <text x="600" y="305" font-family="Arial" font-size="16" font-weight="bold" text-anchor="middle">Occasion</text>
  <line x1="490" y1="315" x2="710" y2="315" stroke="#6600cc" stroke-width="1" />
  <text x="500" y="335" font-family="Arial" font-size="14" font-weight="bold">PK</text>
  <text x="530" y="335" font-family="Arial" font-size="14" font-weight="bold">OccasionID</text>
  <line x1="490" y1="345" x2="710" y2="345" stroke="#cccccc" stroke-width="1" />
  <text x="530" y="365" font-family="Arial" font-size="14">Name</text>
  <line x1="490" y1="375" x2="710" y2="375" stroke="#cccccc" stroke-width="1" />
  <text x="530" y="395" font-family="Arial" font-size="14">Location</text>
  <line x1="490" y1="405" x2="710" y2="405" stroke="#cccccc" stroke-width="1" />
  <text x="530" y="425" font-family="Arial" font-size="14">Description</text>
  <line x1="490" y1="435" x2="710" y2="435" stroke="#cccccc" stroke-width="1" />
  <text x="530" y="455" font-family="Arial" font-size="14">Date</text>
  <line x1="490" y1="465" x2="710" y2="465" stroke="#cccccc" stroke-width="1" />
  <text x="530" y="485" font-family="Arial" font-size="14">StartTime</text>
  <line x1="490" y1="495" x2="710" y2="495" stroke="#cccccc" stroke-width="1" />
  <text x="530" y="505" font-family="Arial" font-size="14">EndTime</text>
  <line x1="490" y1="515" x2="710" y2="515" stroke="#cccccc" stroke-width="1" />
  <text x="500" y="535" font-family="Arial" font-size="14" font-weight="bold">FK</text>
  <text x="530" y="535" font-family="Arial" font-size="14">CreatorID → Users</text>

  <!-- OccasionParticipants Table -->
  <rect x="930" y="280" width="220" height="150" fill="#ffffcc" stroke="#cccc00" stroke-width="2" rx="5" />
  <text x="1040" y="305" font-family="Arial" font-size="16" font-weight="bold" text-anchor="middle">OccasionParticipants</text>
  <line x1="930" y1="315" x2="1150" y2="315" stroke="#cccc00" stroke-width="1" />
  <text x="940" y="335" font-family="Arial" font-size="14" font-weight="bold">PK</text>
  <text x="970" y="335" font-family="Arial" font-size="14" font-weight="bold">ParticipantID</text>
  <line x1="930" y1="345" x2="1150" y2="345" stroke="#cccccc" stroke-width="1" />
  <text x="940" y="365" font-family="Arial" font-size="14" font-weight="bold">FK</text>
  <text x="970" y="365" font-family="Arial" font-size="14">OccasionID → Occasion</text>
  <line x1="930" y1="375" x2="1150" y2="375" stroke="#cccccc" stroke-width="1" />
  <text x="940" y="395" font-family="Arial" font-size="14" font-weight="bold">FK</text>
  <text x="970" y="395" font-family="Arial" font-size="14">UserID → Users</text>
  <line x1="930" y1="405" x2="1150" y2="405" stroke="#cccccc" stroke-width="1" />
  <text x="970" y="425" font-family="Arial" font-size="14">Status</text>

  <!-- Third Row -->
  <!-- Drinks Table -->
  <rect x="50" y="590" width="220" height="200" fill="#ffe6e6" stroke="#cc0000" stroke-width="2" rx="5" />
  <text x="160" y="615" font-family="Arial" font-size="16" font-weight="bold" text-anchor="middle">Drinks</text>
  <line x1="50" y1="625" x2="270" y2="625" stroke="#cc0000" stroke-width="1" />
  <text x="60" y="645" font-family="Arial" font-size="14" font-weight="bold">PK</text>
  <text x="90" y="645" font-family="Arial" font-size="14" font-weight="bold">DrinkID</text>
  <line x1="50" y1="655" x2="270" y2="655" stroke="#cccccc" stroke-width="1" />
  <text x="90" y="675" font-family="Arial" font-size="14">Name</text>
  <line x1="50" y1="685" x2="270" y2="685" stroke="#cccccc" stroke-width="1" />
  <text x="60" y="705" font-family="Arial" font-size="14" font-weight="bold">FK</text>
  <text x="90" y="705" font-family="Arial" font-size="14">CategoryID</text>
  <line x1="50" y1="715" x2="270" y2="715" stroke="#cccccc" stroke-width="1" />
  <text x="90" y="735" font-family="Arial" font-size="14">AlcoholContent</text>
  <line x1="50" y1="745" x2="270" y2="745" stroke="#cccccc" stroke-width="1" />
  <text x="90" y="765" font-family="Arial" font-size="14">Amount</text>
  <line x1="50" y1="775" x2="270" y2="775" stroke="#cccccc" stroke-width="1" />
  <text x="90" y="795" font-family="Arial" font-size="14">Unit</text>

  <!-- UserDrinks Table -->
  <rect x="490" y="540" width="220" height="230" fill="#ffccff" stroke="#cc00cc" stroke-width="2" rx="5" />
  <text x="600" y="565" font-family="Arial" font-size="16" font-weight="bold" text-anchor="middle">UserDrinks</text>
  <line x1="490" y1="575" x2="710" y2="575" stroke="#cc00cc" stroke-width="1" />
  <text x="500" y="595" font-family="Arial" font-size="14" font-weight="bold">PK</text>
  <text x="530" y="595" font-family="Arial" font-size="14" font-weight="bold">UserDrinkID</text>
  <line x1="490" y1="605" x2="710" y2="605" stroke="#cccccc" stroke-width="1" />
  <text x="500" y="625" font-family="Arial" font-size="14" font-weight="bold">FK</text>
  <text x="530" y="625" font-family="Arial" font-size="14">UserID → Users</text>
  <line x1="490" y1="635" x2="710" y2="635" stroke="#cccccc" stroke-width="1" />
  <text x="500" y="655" font-family="Arial" font-size="14" font-weight="bold">FK</text>
  <text x="530" y="655" font-family="Arial" font-size="14">DrinkID → Drinks</text>
  <line x1="490" y1="665" x2="710" y2="665" stroke="#cccccc" stroke-width="1" />
  <text x="500" y="685" font-family="Arial" font-size="14" font-weight="bold">FK</text>
  <text x="530" y="685" font-family="Arial" font-size="14">OccasionID → Occasion</text>
  <line x1="490" y1="695" x2="710" y2="695" stroke="#cccccc" stroke-width="1" />
  <text x="530" y="715" font-family="Arial" font-size="14">Quantity</text>
  <line x1="490" y1="725" x2="710" y2="725" stroke="#cccccc" stroke-width="1" />
  <text x="530" y="745" font-family="Arial" font-size="14">ConsumedAt</text>
  <line x1="490" y1="755" x2="710" y2="755" stroke="#cccccc" stroke-width="1" />
  <text x="530" y="765" font-family="Arial" font-size="14">HungoverRating</text>
  <line x1="490" y1="765" x2="710" y2="765" stroke="#cccccc" stroke-width="1" />
  <text x="530" y="785" font-family="Arial" font-size="14">Notes</text>

  <!-- Images and UserLog Tables (Side by Side) -->
  <rect x="930" y="460" width="220" height="170" fill="#e6ffff" stroke="#00cccc" stroke-width="2" rx="5" />
  <text x="1040" y="485" font-family="Arial" font-size="16" font-weight="bold" text-anchor="middle">Images</text>
  <line x1="930" y1="495" x2="1150" y2="495" stroke="#00cccc" stroke-width="1" />
  <text x="940" y="515" font-family="Arial" font-size="14" font-weight="bold">PK</text>
  <text x="970" y="515" font-family="Arial" font-size="14" font-weight="bold">ImageID</text>
  <line x1="930" y1="525" x2="1150" y2="525" stroke="#cccccc" stroke-width="1" />
  <text x="970" y="545" font-family="Arial" font-size="14">ImagePath</text>
  <line x1="930" y1="555" x2="1150" y2="555" stroke="#cccccc" stroke-width="1" />
  <text x="970" y="575" font-family="Arial" font-size="14">Caption</text>
  <line x1="930" y1="585" x2="1150" y2="585" stroke="#cccccc" stroke-width="1" />
  <text x="940" y="605" font-family="Arial" font-size="14" font-weight="bold">FK</text>
  <text x="970" y="605" font-family="Arial" font-size="14">OccasionID → Occasion</text>
  <line x1="930" y1="615" x2="1150" y2="615" stroke="#cccccc" stroke-width="1" />
  <text x="940" y="635" font-family="Arial" font-size="14" font-weight="bold">FK</text>
  <text x="970" y="635" font-family="Arial" font-size="14">CreatorID → Users</text>
  <line x1="930" y1="645" x2="1150" y2="645" stroke="#cccccc" stroke-width="1" />
  <text x="970" y="665" font-family="Arial" font-size="14">UploadDate</text>

  <rect x="930" y="650" width="220" height="120" fill="#e6ffe6" stroke="#009900" stroke-width="2" rx="5" />
  <text x="1040" y="675" font-family="Arial" font-size="16" font-weight="bold" text-anchor="middle">UserLog</text>
  <line x1="930" y1="685" x2="1150" y2="685" stroke="#009900" stroke-width="1" />
  <text x="940" y="705" font-family="Arial" font-size="14" font-weight="bold">PK</text>
  <text x="970" y="705" font-family="Arial" font-size="14" font-weight="bold">LogID</text>
  <line x1="930" y1="715" x2="1150" y2="715" stroke="#cccccc" stroke-width="1" />
  <text x="940" y="735" font-family="Arial" font-size="14" font-weight="bold">FK</text>
  <text x="970" y="735" font-family="Arial" font-size="14">UserID → Users</text>
  <line x1="930" y1="745" x2="1150" y2="745" stroke="#cccccc" stroke-width="1" />
  <text x="970" y="765" font-family="Arial" font-size="14">LoginTime</text>

  <!-- Views Box -->
  <rect x="170" y="800" width="860" height="40" fill="#f0f0f0" stroke="#666666" stroke-width="2" rx="5" />
  <text x="600" y="825" font-family="Arial" font-size="16" font-weight="bold" text-anchor="middle">VIEWS: UserFriendsView, UserDrinksSummaryView, UpcomingOccasionsView</text>

  <!-- Relationship Lines -->
  <!-- Users to FriendRequest -->
  <path d="M 270 125 L 490 155" stroke="#333333" stroke-width="1.5" fill="none" marker-end="url(#arrowhead)" />
  <path d="M 270 130 L 490 185" stroke="#333333" stroke-width="1.5" fill="none" marker-end="url(#arrowhead)" />

  <!-- FriendRequest to Friends -->
  <path d="M 710 125 L 930 155" stroke="#333333" stroke-width="1.5" fill="none" marker-end="url(#arrowhead)" />
  <text x="820" y="110" font-family="Arial" font-size="12">Trigger when</text>
  <text x="820" y="125" font-family="Arial" font-size="12">status='accepted'</text>

  <!-- Users to Friends -->
  <path d="M 270 150 L 930 185" stroke="#333333" stroke-width="1.5" fill="none" marker-end="url(#arrowhead)" />

  <!-- Users to Occasion -->
  <path d="M 270 200 C 370 200 370 535 490 535" stroke="#333333" stroke-width="1.5" fill="none" marker-end="url(#arrowhead)" />

  <!-- Occasion to OccasionParticipants -->
  <path d="M 710 335 L 930 365" stroke="#333333" stroke-width="1.5" fill="none" marker-end="url(#arrowhead)" />

  <!-- Users to OccasionParticipants -->
  <path d="M 270 250 C 600 250 600 395 930 395" stroke="#333333" stroke-width="1.5" fill="none" marker-end="url(#arrowhead)" />

  <!-- Users to Images -->
  <path d="M 270 300 C 800 300 800 635 930 635" stroke="#333333" stroke-width="1.5" fill="none" marker-end="url(#arrowhead)" />

  <!-- Occasion to Images -->
  <path d="M 710 390 C 820 390 820 605 930 605" stroke="#333333" stroke-width="1.5" fill="none" marker-end="url(#arrowhead)" />

  <!-- Users to UserDrinks -->
  <path d="M 270 350 C 370 350 370 625 490 625" stroke="#333333" stroke-width="1.5" fill="none" marker-end="url(#arrowhead)" />

  <!-- Drinks to UserDrinks -->
  <path d="M 270 650 L 490 655" stroke="#333333" stroke-width="1.5" fill="none" marker-end="url(#arrowhead)" />

  <!-- Occasion to UserDrinks -->
  <path d="M 710 500 C 760 500 760 685 710 685" stroke="#333333" stroke-width="1.5" fill="none" marker-end="url(#arrowhead)" />

  <!-- Users to UserLog -->
  <path d="M 160 410 C 160 650 820 735 930 735" stroke="#333333" stroke-width="1.5" fill="none" marker-end="url(#arrowhead)" />

  <!-- DrinkCategories to Drinks -->
  <path d="M 160 560 L 160 635" stroke="#333333" stroke-width="1.5" fill="none" marker-end="url(#arrowhead)" />

  <!-- Define arrowhead marker -->
  <defs>
    <marker id="arrowhead" markerWidth="10" markerHeight="7" refX="9" refY="3.5" orient="auto">
      <polygon points="0 0, 10 3.5, 0 7" fill="#333333" />
    </marker>
  </defs>
</svg>